<svg xmlns="http://www.w3.org/2000/svg" viewBox="79 0 207.14 36.09" fill="#171717" role="img" aria-label="vocalmapp">
  <path d="M202.63,16.28l-.05,8.29c-.01,1.88-1.43,3.22-3.11,3.34s-3.57-1.13-3.58-3.08l-.06-8.66c0-1.34-1.23-2.18-2.33-2.27s-2.53.67-2.55,2.02l-.12,8.85c-.03,1.94-1.88,3.22-3.5,3.13-1.91-.1-3.19-1.6-3.19-3.56v-8.44c.19-3.97,2.84-7.09,6.67-8.04,3.04-.75,6.22-.1,8.45,2.08,2.29-2.18,5.36-2.8,8.39-2.1,3.87.89,6.53,4.19,6.72,8.17l-.03,8.73c0,1.79-1.68,3.13-3.22,3.18-1.63.06-3.45-1.08-3.47-2.92l-.07-8.34c-.01-1.48-.77-2.56-2.19-2.73-1.28-.15-2.77.67-2.78,2.37Z"/>
  <path d="M272.12,32.16c-.02,2.1-1.7,3.36-3.43,3.36-1.89,0-3.38-1.45-3.37-3.51l.08-15.1c.03-5.06,4.17-8.75,9.04-9.29,3.17-.35,6.25.6,8.5,2.69,4.64,4.33,4.2,12.44-.99,16.02-2.98,2.06-6.41,2.35-9.77,1.08l-.05,4.75ZM279.76,17.94c0-2.24-1.81-4.05-4.05-4.05s-4.05,1.81-4.05,4.05,1.81,4.05,4.05,4.05,4.05-1.81,4.05-4.05Z"/>
  <path d="M249.01,31.66c-.03,2.19-1.22,3.73-3.16,3.85s-3.66-1.32-3.65-3.5l.05-14.62c.02-5.09,3.77-8.99,8.66-9.73,6.47-.98,12.1,3.71,12.11,10.25,0,3.41-1.5,6.56-4.11,8.38-2.89,2.01-6.36,2.46-9.84,1.14l-.05,4.22ZM256.65,17.95c0-2.23-1.81-4.05-4.05-4.05s-4.05,1.81-4.05,4.05,1.81,4.05,4.05,4.05,4.05-1.81,4.05-4.05Z"/>
  <path d="M169.63,24.23c0,1.86-1,3.31-2.51,3.74-1.74.49-3.56-.13-4.32-2.08-1.25,1.16-2.74,2.01-4.53,2.26-6.34.86-11.51-3.93-11.46-10.26s5.45-11.26,11.84-10.11c1.73.31,3.07,1.5,4.23,2.86.91-1.57,2.37-2.21,4.04-1.85,1.26.27,2.67,1.53,2.68,3.15l.04,12.3ZM161.35,17.99c0-2.24-1.81-4.05-4.05-4.05s-4.05,1.81-4.05,4.05,1.81,4.05,4.05,4.05,4.05-1.81,4.05-4.05Z"/>
  <path d="M239.4,24.47c0,1.88-1.23,3.24-2.75,3.52-1.71.31-3.39-.53-3.93-2.22-1.45,1.46-3.1,2.2-5.01,2.38-6.26.58-11.17-4.46-10.91-10.66.24-5.74,4.75-10.26,10.6-9.86,2.2.15,4.07,1.15,5.3,3.1.74-1.47,2.15-2.2,3.75-2.02,1.45.17,2.93,1.45,2.93,3.22l.02,12.54ZM231.25,17.97c0-2.24-1.81-4.05-4.05-4.05s-4.05,1.81-4.05,4.05,1.81,4.05,4.05,4.05,4.05-1.81,4.05-4.05Z"/>
  <path d="M122.88,18.21c0,5.76-4.67,10.43-10.43,10.43s-10.43-4.67-10.43-10.43,4.67-10.43,10.43-10.43,10.43,4.67,10.43,10.43ZM116.49,18.21c0-2.24-1.82-4.06-4.06-4.06s-4.06,1.82-4.06,4.06,1.82,4.06,4.06,4.06,4.06-1.82,4.06-4.06Z"/>
  <path d="M138.58,20.97c1.3-1.38,3.28-1.52,4.63-.37,1.21,1.04,1.63,3.16.35,4.53-3.56,3.78-9.47,4.47-13.85,1.66-2.93-1.88-4.49-5.06-4.58-8.3-.09-3.41,1.29-6.63,4.18-8.66,4.25-2.98,10.03-2.45,13.83.99,1.46,1.32,1.52,3.42.34,4.65-1.39,1.45-3.5,1.4-4.89-.06-1.58-1.66-4.19-1.73-5.79-.22s-1.76,4.26-.11,5.94c1.5,1.54,4.21,1.63,5.9-.16Z"/>
  <path d="M100.46,12.89l-6.15,13.03c-.8,1.7-2.82,2.48-4.45,2.42s-3.54-.9-4.3-2.58l-6.05-13.27c-.78-1.7.45-3.62,1.95-4.2s3.55-.01,4.28,1.67l4.25,9.69,4.11-9.29c.77-1.75,2.53-2.69,4.24-2.14,1.85.59,3.06,2.69,2.12,4.67Z"/>
  <path d="M180.42,24.65c0,2.14-1.8,3.44-3.51,3.45-1.91.02-3.56-1.46-3.56-3.57V3.53c0-2.01,1.56-3.41,3.34-3.53,1.65-.11,3.72,1.11,3.72,3.1l.02,21.55Z"/>
</svg>
