<?xml version="1.0" encoding="UTF-8"?>
<svg fill="#ffffff" id="Calque_2" data-name="Calque 2" xmlns="http://www.w3.org/2000/svg" viewBox="0 0 195.8 93.25">
  <g id="Calque_1-2" data-name="Calque 1">
    <path d="M122.61,9.38l-13.65,35.22c-1.16,3-3.53,5.37-6.46,6.7-6.34,2.86-14.22-.19-16.58-6.91l-11.91-33.83c-1.38-3.92-.19-8.08,3.59-9.84,3.63-1.7,7.91-.31,9.95,3.44l10.19,31.39,11.04-30.26c.93-2.56,2.66-4.44,5.13-5.03,2.71-.66,5.51.11,7.27,2.35,1.4,1.77,2.36,4.39,1.44,6.77Z"/>
    <path d="M116.75,75.03l-.05,7.85c-.01,1.78-1.36,3.05-2.94,3.16s-3.37-1.07-3.39-2.91l-.05-8.2c0-1.27-1.17-2.07-2.2-2.15s-2.39.64-2.41,1.91l-.11,8.37c-.02,1.83-1.78,3.05-3.32,2.97-1.81-.1-3.02-1.51-3.02-3.37v-7.99c.18-3.75,2.69-6.71,6.31-7.61,2.88-.71,5.89-.1,8,1.96,2.17-2.07,5.08-2.65,7.94-1.99,3.66.85,6.18,3.97,6.36,7.74l-.03,8.26c0,1.69-1.59,2.96-3.05,3.01-1.54.05-3.27-1.03-3.28-2.77l-.07-7.9c-.01-1.4-.73-2.42-2.07-2.59-1.21-.15-2.62.64-2.63,2.24Z"/>
    <path d="M182.53,90.06c-.02,1.99-1.61,3.18-3.25,3.18-1.79,0-3.2-1.37-3.19-3.32l.07-14.29c.02-4.79,3.95-8.29,8.55-8.79,3-.33,5.92.57,8.04,2.55,4.39,4.09,3.97,11.78-.93,15.16-2.82,1.95-6.06,2.23-9.25,1.02l-.05,4.49ZM189.76,76.61c0-2.12-1.72-3.83-3.83-3.83s-3.83,1.72-3.83,3.83,1.72,3.83,3.83,3.83,3.83-1.72,3.83-3.83Z"/>
    <path d="M160.65,89.59c-.02,2.08-1.16,3.53-2.99,3.65s-3.46-1.25-3.46-3.31l.04-13.83c.02-4.82,3.57-8.51,8.19-9.21,6.12-.93,11.45,3.51,11.46,9.7,0,3.23-1.42,6.21-3.89,7.93-2.73,1.9-6.02,2.33-9.31,1.08l-.05,4ZM167.88,76.61c0-2.11-1.71-3.83-3.83-3.83s-3.83,1.71-3.83,3.83,1.71,3.83,3.83,3.83,3.83-1.71,3.83-3.83Z"/>
    <path d="M85.52,82.55c0,1.76-.95,3.13-2.37,3.54-1.65.47-3.37-.12-4.08-1.96-1.19,1.1-2.59,1.9-4.29,2.13-6,.82-10.89-3.72-10.85-9.71s5.15-10.66,11.2-9.57c1.63.29,2.91,1.42,4,2.71.86-1.48,2.24-2.1,3.82-1.75,1.19.26,2.53,1.45,2.54,2.98l.04,11.64ZM77.68,76.65c0-2.12-1.72-3.83-3.83-3.83s-3.83,1.72-3.83,3.83,1.72,3.83,3.83,3.83,3.83-1.72,3.83-3.83Z"/>
    <path d="M151.56,82.78c0,1.78-1.16,3.07-2.61,3.33-1.62.3-3.21-.5-3.72-2.1-1.37,1.38-2.94,2.08-4.75,2.25-5.93.55-10.58-4.23-10.33-10.09.23-5.44,4.5-9.71,10.03-9.33,2.08.14,3.85,1.08,5.02,2.93.7-1.39,2.03-2.09,3.55-1.91,1.37.16,2.77,1.38,2.77,3.05l.02,11.87ZM143.84,76.63c0-2.12-1.71-3.83-3.83-3.83s-3.83,1.71-3.83,3.83,1.71,3.83,3.83,3.83,3.83-1.71,3.83-3.83Z"/>
    <path d="M71.44,27.15c0,3.33-3.06,5.4-5.95,5.2-3.05-.21-5.31-2.62-5.29-5.81l.08-15.14c.02-3,2.91-5.16,5.6-5.13,2.84.03,5.58,2.21,5.58,5.25l-.02,15.63Z"/>
    <path d="M135.88,27.37c0,3.19-3.15,5.13-5.85,4.97-3.08-.18-5.35-2.63-5.35-5.79l.03-14.8c0-3,2.5-5.28,5.27-5.46s5.89,1.91,5.89,5v16.08Z"/>
    <path d="M41.28,76.86c0,5.45-4.42,9.87-9.87,9.87s-9.87-4.42-9.87-9.87,4.42-9.87,9.87-9.87,9.87,4.42,9.87,9.87ZM35.23,76.85c0-2.12-1.72-3.85-3.85-3.85s-3.85,1.72-3.85,3.85,1.72,3.85,3.85,3.85,3.85-1.72,3.85-3.85Z"/>
    <path d="M56.13,79.47c1.23-1.3,3.1-1.44,4.38-.35,1.14.98,1.55,2.99.33,4.28-3.37,3.58-8.97,4.23-13.11,1.57-2.78-1.78-4.25-4.78-4.33-7.86-.08-3.23,1.22-6.28,3.96-8.19,4.02-2.82,9.5-2.32,13.09.93,1.38,1.25,1.44,3.24.33,4.4-1.32,1.38-3.31,1.32-4.63-.05-1.5-1.57-3.96-1.63-5.48-.21s-1.66,4.03-.11,5.63c1.42,1.45,3.98,1.55,5.58-.15Z"/>
    <path d="M20.06,71.83l-5.82,12.33c-.76,1.61-2.67,2.34-4.21,2.29s-3.35-.85-4.07-2.44L.23,71.45c-.74-1.61.43-3.42,1.85-3.98s3.36-.01,4.05,1.58l4.02,9.17,3.89-8.79c.73-1.66,2.4-2.54,4.01-2.02,1.75.56,2.89,2.55,2.01,4.42Z"/>
    <path d="M95.73,82.96c0,2.03-1.7,3.25-3.32,3.27-1.81.02-3.37-1.38-3.37-3.38v-19.88c0-1.9,1.47-3.23,3.16-3.34,1.56-.1,3.52,1.05,3.52,2.93l.02,20.4Z"/>
    <path d="M57.49,21.03c0,2.61-2.17,4.39-4.51,4.33s-4.3-1.98-4.29-4.44v-3.77c.02-2.45,2.02-4.3,4.32-4.35,2.41-.05,4.5,1.84,4.5,4.38v3.86Z"/>
    <path d="M147.44,21.06c-.02,2.45-2.01,4.16-4.12,4.29-2.31.14-4.6-1.5-4.62-3.95l-.04-4.28c-.02-2.47,2.1-4.32,4.48-4.3s4.36,2.01,4.33,4.56l-.03,3.68Z"/>
  </g>
</svg>
