<?xml version="1.0" encoding="UTF-8"?>
<svg id="Calque_2" data-name="Calque 2" xmlns="http://www.w3.org/2000/svg" viewBox="0 0 351.25 102.07">
  <defs>
    <style>
      .cls-1 {
        fill: #059669;
      }
    </style>
  </defs>
  <g id="Calque_1-2" data-name="Calque 1">
    <path class="cls-1" d="M164.72,92.24c-.15.82-.99,2.02-1.55,1.97s-1.68-1.04-1.76-1.6l-1.41-9.31c-.07-.45-1.01-1.36-1.38-1.23s-1.06.85-1.16,1.27l-1.43,5.92c-.1.42-.68,1.15-.96,1.36-.35.27-1.54-.7-1.65-1.18l-1.49-6.2c-.14-.58-1.23-1.63-1.75-1.49-2.06.54-1.34,4.83-3.35,5.3-2.39.55-1.77-5.42-4.65-5.43-3.09,0-2.69,4.03-4.04,3.68-1.76-.46-1.76-2.84-3.5-3.28-1.53-.39-1.26,4.29-3.41,5.47-2.75-.6-1.37-5.15-4.36-6.01s-3.74,2.14-5.18,2.27-3-4.61-6.54-2.72l-1.56,4.83c-.13.39-.7,1.11-.99,1.34-.37.29-1.7-.43-1.85-.91l-1.58-4.94c-.43-1.35-3.64-2.03-4.48-1.09l-2.55,2.87c-1.33-3.76-2.92-3.48-5.71-3.91l-14.2-2.23c-17.1-2.69-33.72-5.36-50.84-9.44l43.23,4.08,20.59,2.35,3.51,2.49,2.38-4.17.76-1.39c.2-.37,1.4.51,1.55.91l1.48,3.97c.21.57,2.09.71,2.67.48.67-.28,1.44-1.33,1.61-2.27l.99-5.47c.08-.42.7-1.22,1.06-1.41.45-.23,1.61.59,1.78,1.14l2.54,8.52c.52,1.73,3.72.26,4.38-1.18.37-.8,2.17-.25,2.61.51.84,1.42,2.5,2.01,4.15,1.72,1.22-.22,1.96-1.92,2.47-3.38l.7-2.01c.18-.52,1.8-.68,2.25-.37l1.41,3.96c.19.52,1.35,1.72,1.66,1.34l1.31-1.62,1.25-1.53c.8-.98,1.93,3.66,3.9,3.67.87,0,2.22-1.04,2.43-1.93l1.03-4.45c.08-.34.76-1.07,1.06-1.22s1.27.71,1.36,1.02l1.46,4.85c.15.49,1.15,1.34,1.65,1.24s1.26-1,1.38-1.58l1.31-6.41c.07-.34.66-1.03.87-1.2.28-.23,1.35.61,1.46.99l1.98,7.05c.11.39.76,1.02,1.04,1.17.37.19,1.3-.79,1.35-1.23l1.36-10.79c.07-.54.89-1.5,1.32-1.66.51-.19,1.64.94,1.75,1.48l2.47,12.77c1.71-2.43,1.29-4.91,1.6-7.8l1.29-12.26c.04-.34.68-1.07.89-1.28.28-.28,1.56.39,1.69.8,1.91,6.14.95,13.77,3.44,20.34,2.3-4.8,1.45-12.37,3.83-13.72.43-.25,1.6.76,1.7,1.29l1.83,10c.17.94.77,1.95,1.82,1.92l1.83-9.34c.08-.4.77-1.27.99-1.53.28-.32,1.55.46,1.66.94l2.2,9.98c3.49-.29,1.89-5.29,4.8-8.1,2.3,3.19,1.62,8,4.15,8.07.57.01,1.41-1.2,1.49-1.84l1.25-11.15c.07-.59,1.15-1.83,1.72-1.77s1.56,1.25,1.66,1.83l1.71,10.63c.09.53.81,1.43,1.23,1.65.51.26,1.93-.46,2.1-1.09l1.28-4.71c.12-.43.64-1.17,1.02-1.27.48-.13,1.6.67,1.75,1.16l1.44,4.97c.16.57,2.18.85,2.67.49,1.76-1.3,1.14-3.28,2.61-4.1,1.64-.91.92,3.61,4.22,3.29l28.04-2.75c23.9-2.34,57.19-4.96,80.15-2.69l6.3.62c-22.62.46-44.91,1.87-67.62,4.5l-49.05,5.69c-.08,1.37-1.91,2.92-2.39,2.23-.88-1.27-1.66-2.57-2.6-2.64-3.82-.28-1.91,5.92-4.85,5.74-2.12-.14-1.48-5.02-4.15-5.16-1.5-.08-2.49.8-2.74,2.32l-.96,5.79c-.07.44-.69,1.27-.96,1.55-.34.35-1.95-.2-2.08-.75l-1.63-7.14c-.12-.53-1.16-1.42-1.7-1.45s-1.61.81-1.77,1.34l-1.17,3.77c-.09.31-.76.92-1.06,1.01-.41.13-1.23-.63-1.37-1.04l-1.3-3.67c-.12-.35-1.01-.95-1.37-1.02-.46-.09-1.34.81-1.45,1.27l-1.46,6.33c-.09.4-.76,1.23-1.05,1.46-.36.28-1.43-.84-1.56-1.33l-2.1-7.4c-1.14.22-1.63,1.26-1.83,2.37l-1.47,8.37c-.09.54-1.01,1.4-1.48,1.45s-1.56-.78-1.65-1.25l-1.9-9.54c-.07-.35-.89-1.45-.99-1.22l-.49,1.19-1.65,17.1c-.44.59-.98,1.45-1.41,1.57-.52.15-1.24-.74-1.79-1.42l-2.08-17.15-.75-1.15c-.19-.28-1.01.51-1.08.93l-1.6,8.97Z"/>
    <path class="cls-1" d="M200.7,50.78l-10.27.05.03-21c0-2.19-1.17-4.12-3.36-4.73-3.49-.97-8.98,1.19-9.02,5.3l-.19,20.41h-9.88s-.03-33.88-.03-33.88h9.83s.14,5.12.14,5.12c3.11-3.99,7.35-5.66,12.29-5.44,3.89.18,7.13,1.88,9.03,5.57,3.56-4.41,8.5-6.05,13.8-5.51s10.19,4.84,10.21,10.71l.09,23.44h-10.08s-.01-20.96-.01-20.96c0-2.5-1.97-4.74-4.48-4.96-3.53-.32-6.56,1.85-8.14,4.86l.04,21.02Z"/>
    <path class="cls-1" d="M279.94,64.39l-10.07-.02V16.94s9.93,0,9.93,0l.5,4.55c6.69-6.55,17.69-6.84,23.99.33,5.36,6.1,5.87,15.43,1.76,22.19-5.27,8.66-18.14,10.32-26.04,3.6l-.07,16.78ZM283.56,42.91c4.06,2.06,9.88,1.92,13.02-1.84,2.9-3.46,2.87-9.95-.14-13.36-4.51-5.11-12.26-3.82-16.32,1.06l-.09,8.59c-.02,2.27,1.16,4.33,3.53,5.54Z"/>
    <path class="cls-1" d="M322.34,64.41h-9.88s.11-31.95.11-31.95l-.12-15.49,9.86-.05v5.03c6.27-7.44,18.3-7,24.46-.19,3.39,3.75,4.6,8.57,4.48,13.56-.22,8.77-6.59,15.42-15.26,16.25-5.15.49-9.96-.65-13.74-4.41l.09,17.24ZM332.31,44.27c5.76-.03,8.97-3.72,9-8.99.02-2.92-.28-6.27-2.79-8.29-4.8-3.85-12.08-3.04-15.99,1.77-.05,3.3-.42,6.82.22,10,.82,4.11,5.74,5.52,9.56,5.51Z"/>
    <path class="cls-1" d="M253.19,47.32c-7.28,6.61-20.88,5.42-24.24-1.49-2.7-5.57.35-11.27,5.91-13.5,5.49-2.2,11.43-2.2,17.34-1.39.39-2.7-1.17-5.13-3.72-5.79-5.76-1.5-11.39-.15-16.44,2.86l-3.02-6.69c6.48-4.53,14.02-5.34,21.64-4.33,6.14.81,10.95,5.5,11,11.86l.11,11.98c.02,2.1,1.25,3.69,3.42,4.15l-1.01,5.87-7.44.02c-2,0-3.13-1.09-3.56-3.55ZM252.1,41.26l.27-4.24c-6.25-1.2-14.52-.57-14.14,4.53.32,4.28,8.9,4.54,13.87-.29Z"/>
    <path class="cls-1" d="M135.73,47.49c-6.11,5.99-18.47,5.67-22.49-.95-1.74-2.87-1.94-6.35-.24-9.18,4.14-6.88,14.2-7.64,22.4-6.57.16-1.51-.46-4.21-1.97-4.89-5.78-2.59-12.18-1.1-17.4,1.99l-3.07-6.51c5.56-4.89,16.14-5.89,23.12-3.83,6.5,1.92,9.6,7.37,9.4,13.78s-.09,12.79.16,19.51l-8.7-.02-1.21-3.34ZM135.26,41.29l.15-4.41c-6.29-1.02-13.84-.31-13.62,4.69.18,4.07,9.02,4.59,13.47-.28Z"/>
    <path class="cls-1" d="M65.42,50.07c-5.25,2.19-11.23,2.13-16.38.26-6.38-2.31-10.66-7.83-11.15-14.44-.58-7.92,3.22-14.99,10.8-17.93,4.99-1.94,11.15-1.96,16.18-.1,7.91,2.93,11.89,10.31,11.15,18.54-.55,6.16-4.55,11.14-10.61,13.67ZM66.71,34.42c0-5.33-4.32-9.64-9.66-9.64s-9.66,4.32-9.66,9.64,4.32,9.64,9.66,9.64,9.66-4.32,9.66-9.64Z"/>
    <polygon class="cls-1" points="28.48 16.96 38.74 16.94 24.36 50.74 15 50.8 0 17.13 10.73 16.87 19.82 40.16 28.48 16.96"/>
    <path class="cls-1" d="M95.32,43.26c4.45,1.32,8.41.37,12.8-1.53l.32,7.94c-5.08,1.76-9.92,2.49-15,1.65-7.95-1.31-13.97-7.49-14.48-15.41-.56-8.62,4.17-16.2,12.53-18.51,5.54-1.53,11.17-1.02,16.74.72v8.92c-3.16-1.45-5.7-2.18-8.77-2.43-3.17-.13-6.04.83-8.05,2.96s-2.88,5.16-2.5,8.23c.45,3.64,2.72,6.35,6.42,7.45Z"/>
    <rect class="cls-1" x="131.12" y="20.58" width="50.84" height="9.69" transform="translate(131.1 181.95) rotate(-90)"/>
  </g>
</svg>