<svg xmlns="http://www.w3.org/2000/svg" viewBox="0 0 64 64">
  <rect width="64" height="64" rx="16" fill="#00857e"/>
  <g transform="translate(5.5 17.95) scale(.79)" fill="#fff">
    <path d="M50.15,6.36l-9.26,23.89c-.79,2.04-2.4,3.65-4.38,4.54-4.3,1.94-9.64-.13-11.25-4.68L17.18,7.16c-.94-2.66-.13-5.48,2.43-6.68,2.46-1.15,5.36-.21,6.75,2.33l6.91,21.29,7.49-20.52c.63-1.73,1.8-3.01,3.48-3.41,1.84-.45,3.73.08,4.93,1.59.95,1.2,1.6,2.98.98,4.59Z"/>
    <path d="M15.43,18.41c0,2.26-2.07,3.66-4.04,3.53-2.07-.14-3.6-1.78-3.59-3.94l.05-10.27c.01-2.03,1.97-3.5,3.8-3.48,1.93.02,3.78,1.5,3.78,3.56v10.6Z"/>
    <path d="M59.15,18.56c0,2.16-2.14,3.48-3.97,3.37-2.09-.12-3.63-1.78-3.63-3.93l.02-10.04c0-2.03,1.7-3.58,3.58-3.71s4,1.3,4,3.39v10.91Z"/>
    <path d="M5.97,14.27c0,1.77-1.47,2.98-3.06,2.94S0,15.86,0,14.19v-2.56c.01-1.66,1.37-2.92,2.93-2.95,1.64-.04,3.06,1.25,3.05,2.97v2.61Z"/>
    <path d="M66.98,14.28c-.02,1.66-1.36,2.82-2.8,2.91-1.57.1-3.12-1.02-3.13-2.68l-.02-2.9c-.01-1.68,1.42-2.93,3.04-2.91s2.96,1.36,2.94,3.09l-.02,2.49Z"/>
  </g>
</svg>
