<?xml version="1.0" encoding="UTF-8"?>
<svg id="Calque_1" data-name="Calque 1" xmlns="http://www.w3.org/2000/svg" viewBox="0 0 46.72 46.72">
  <defs>
    <style>
      .cls-1 {
        fill: #308a5e;
      }
    </style>
  </defs>
  <path class="cls-1" d="M41.76,11.2c-.33-.46-1.32-1.02-1.56-.74-.22.25-.91,1.12-.99,1.53l-1.83,9.34c-1.05.03-1.64-.98-1.82-1.92l-1.83-10c-.1-.53-1.27-1.53-1.7-1.29-2.38,1.35-1.54,8.92-3.83,13.72-2.49-6.58-1.53-14.21-3.44-20.34-.13-.41-1.4-1.09-1.69-.8-.21.21-.85.95-.89,1.28l-1.29,12.26c-.3,2.9.12,5.37-1.6,7.8l-2.47-12.77c-.11-.54-1.24-1.67-1.75-1.48-.42.16-1.25,1.12-1.32,1.66l-1.36,10.79c-.06.44-.98,1.42-1.35,1.23-.28-.15-.93-.77-1.04-1.17l-1.98-7.05c-.11-.38-1.18-1.22-1.46-.99-.21.17-.8.87-.87,1.2l-.74,3.64v12.78l.86,3.59c.12.48,1.3,1.45,1.65,1.18.28-.21.86-.94.96-1.36l1.43-5.92c.1-.42.78-1.13,1.16-1.27.37-.13,1.31.77,1.38,1.23l1.41,9.31c.09.56,1.2,1.55,1.76,1.6.56.05,1.41-1.16,1.55-1.97l1.6-8.97c.07-.42.9-1.21,1.08-.93l.75,1.15,2.08,17.15c.55.68,1.28,1.57,1.79,1.42.43-.12.97-.99,1.41-1.57l1.65-17.1.49-1.19c.1-.23.92.87.99,1.22l1.9,9.54c.09.47,1.19,1.3,1.65,1.25s1.39-.92,1.48-1.45l1.47-8.37c.2-1.12.68-2.16,1.83-2.37l2.1,7.4c.14.48,1.21,1.61,1.56,1.33.2-.16.57-.6.82-.99V11.2Z"/>
</svg>